<svg xmlns="http://www.w3.org/2000/svg" shape-rendering="geometricPrecision" text-rendering="geometricPrecision" image-rendering="optimizeQuality" fill-rule="evenodd" clip-rule="evenodd" viewBox="0 0 512 490.76"><path fill-rule="nonzero" d="M70.168 75.638c0 7.875-6.384 14.259-14.26 14.259-7.875 0-14.26-6.384-14.26-14.259 0-20.812 8.508-39.728 22.207-53.431C77.558 8.508 96.475 0 117.286 0h281.067c20.81 0 39.724 8.511 53.424 22.211 13.705 13.705 22.214 32.624 22.214 53.427v6.143l24.487-.001c2.025 0 3.918.433 5.741 1.289 2.059.967 3.665 2.3 4.93 3.996l-.027.018c.983 1.316 1.719 2.691 2.192 4.191l-.038.012c.476 1.506.724 2.979.724 4.466v63.478c0 1.371-.252 2.749-.762 4.083a11.193 11.193 0 01-.717 1.596 12.044 12.044 0 01-3.188 3.727 12.695 12.695 0 01-2.229 1.452l-.008-.017-.034.017c-1.733.866-3.492 1.304-5.296 1.304h-25.775v28.01h-4.753l29.237.003c2.049 0 3.953.429 5.782 1.288l-.007.016c2.035.963 3.634 2.287 4.899 3.974l-.027.025c.864 1.152 1.525 2.341 1.985 3.564.593 1.583.891 3.158.891 4.726v63.852c0 1.84-.433 3.614-1.306 5.339a12.7 12.7 0 01-2.337 3.259l-.023-.024c-1.023 1.023-2.117 1.822-3.279 2.397l-.02-.033c-1.73.865-3.486 1.294-5.274 1.294l-25.768-.002v30.298h24.48c1.638 0 3.19.272 4.723.809 1.981.697 3.594 1.715 4.933 3.054l-.011.009c1.385 1.361 2.409 3.007 3.065 4.9l-.011-.002.011.038c.542 1.558.815 3.147.815 4.719v63.389c0 1.095-.149 2.199-.445 3.316a12.08 12.08 0 01-3.194 5.689 12.595 12.595 0 01-3.259 2.382c-1.721.87-3.499 1.299-5.337 1.299l-30.521.002h4.751v6.14c0 20.802-8.515 39.715-22.218 53.42-13.705 13.704-32.621 22.218-53.42 22.218H117.286c-20.802 0-39.72-8.51-53.425-22.215-13.701-13.701-22.213-32.612-22.213-53.423 0-7.876 6.385-14.26 14.26-14.26 7.876 0 14.26 6.384 14.26 14.26 0 12.937 5.31 24.715 13.856 33.26 8.549 8.55 20.33 13.858 33.262 13.858h281.067c12.929 0 24.708-5.312 33.257-13.861 8.55-8.549 13.861-20.328 13.861-33.257V75.638c0-12.933-5.308-24.715-13.857-33.264-8.544-8.544-20.321-13.854-33.261-13.854H117.286c-12.941 0-24.722 5.304-33.268 13.85-8.545 8.545-13.85 20.326-13.85 33.268zm306.185 157.197c0 6.587-.518 12.946-1.547 19.061-1.03 6.135-2.576 11.982-4.626 17.528l-.092.226c-2.076 5.531-4.591 10.468-7.528 14.801-3.026 4.464-6.5 8.289-10.394 11.461-3.945 3.21-8.199 5.615-12.746 7.218-4.579 1.613-9.431 2.418-14.545 2.418-4.287 0-8.278-.669-11.981-1.996-3.729-1.336-7.097-3.323-10.108-5.944l-.235-.225c-2.902-2.615-5.219-5.583-6.958-8.892l-.095-.196a31.567 31.567 0 01-1.459-3.258 46.747 46.747 0 01-3.417 4.604 45.08 45.08 0 01-9.76 8.664c-3.666 2.414-7.701 4.227-12.082 5.439-4.342 1.199-8.979 1.804-13.894 1.804-7.286 0-13.825-1.266-19.613-3.792-5.835-2.548-10.858-6.368-15.056-11.458-4.144-5.024-7.241-10.922-9.284-17.676-2.013-6.66-3.018-14.162-3.018-22.503 0-9.641 1.409-18.429 4.22-26.345 2.837-7.982 7.093-15.049 12.762-21.187l.013-.015c5.714-6.16 12.339-10.784 19.866-13.87 7.495-3.072 15.824-4.608 24.983-4.608 3.162 0 6.574.148 10.219.446 3.534.289 7.294.729 11.255 1.318l.106.018c3.852.552 7.585 1.236 11.183 2.036 3.648.81 7.106 1.74 10.367 2.777a3.551 3.551 0 012.473 3.566l-3.379 63.765.006 2.975c0 7.299 1.272 12.654 3.812 16.06l.124.178c2.297 2.968 5.827 4.455 10.577 4.455 3.374 0 6.431-.995 9.167-2.98 2.917-2.116 5.54-5.37 7.854-9.751 2.424-4.588 4.256-9.886 5.481-15.886 1.238-6.066 1.863-12.909 1.863-20.517 0-7.971-.805-15.404-2.418-22.311-1.61-6.897-4.019-13.283-7.222-19.162l-.009-.019c-3.185-5.87-7.043-11.055-11.571-15.553-4.53-4.501-9.756-8.344-15.66-11.527-5.898-3.171-12.254-5.56-19.061-7.156-6.826-1.6-14.135-2.403-21.916-2.403-9.858 0-19.056 1.013-27.584 3.043-8.484 2.019-16.324 5.048-23.513 9.088-7.179 4.037-13.504 8.921-18.961 14.646-5.478 5.745-10.114 12.356-13.901 19.82-3.806 7.502-6.67 15.611-8.581 24.322-1.917 8.741-2.878 18.099-2.878 28.078 0 13.46 1.759 25.322 5.281 35.588 3.482 10.147 8.69 18.755 15.622 25.817 6.911 7.042 15.372 12.334 25.383 15.869 10.127 3.575 21.875 5.366 35.237 5.366 18.625 0 38.001-3.826 58.08-11.474a3.563 3.563 0 014.829 3.329l.003 18.124a3.565 3.565 0 01-2.41 3.374c-8.888 3.862-18.347 6.763-28.382 8.696-10.128 1.949-20.835 2.927-32.12 2.927-16.868 0-31.892-2.338-45.07-7.006-13.283-4.707-24.672-11.783-34.161-21.225-9.482-9.408-16.581-20.704-21.305-33.87-4.693-13.072-7.033-27.939-7.033-44.587 0-12.045 1.243-23.466 3.729-34.259 2.492-10.807 6.237-20.962 11.235-30.458 5.015-9.502 11.109-17.948 18.271-25.328 7.166-7.381 15.397-13.694 24.683-18.923l.264-.133c9.187-5.156 19.038-9.029 29.537-11.61 10.611-2.607 21.866-3.915 33.745-3.915 10.015 0 19.504 1.057 28.461 3.171 8.982 2.121 17.421 5.315 25.322 9.578 7.899 4.276 14.919 9.459 21.04 15.54 6.104 6.062 11.312 13.023 15.612 20.877 4.319 7.829 7.549 16.253 9.696 25.251 2.141 8.993 3.212 18.562 3.212 28.696zm-140.764 17.843c0 10.729 1.964 18.654 5.89 23.772 3.701 4.824 9.392 7.238 17.079 7.238 8.201 0 14.492-3.059 18.877-9.169 4.692-6.537 7.422-16.568 8.197-30.077l1.791-32.585a71.56 71.56 0 00-6.986-1.253c-3.336-.429-6.897-.648-10.678-.648-5.409 0-10.195.922-14.355 2.761-4.096 1.811-7.644 4.547-10.631 8.199l-.155.176c-2.943 3.659-5.176 8.064-6.681 13.193-1.563 5.323-2.348 11.464-2.348 18.393zM22.466 379.382C10.06 379.382 0 369.322 0 356.916s10.06-22.466 22.466-22.466h47.869c12.406 0 22.466 10.06 22.466 22.466s-10.06 22.466-22.466 22.466H22.466zm0-74.357C10.06 305.025 0 294.965 0 282.559s10.06-22.466 22.466-22.466h47.869c12.406 0 22.466 10.06 22.466 22.466s-10.06 22.466-22.466 22.466H22.466zm0-74.357C10.06 230.668 0 220.608 0 208.202s10.06-22.466 22.466-22.466h47.869c12.406 0 22.466 10.06 22.466 22.466s-10.06 22.466-22.466 22.466H22.466zm0-74.357C10.06 156.311 0 146.251 0 133.845s10.06-22.466 22.466-22.466h47.869c12.406 0 22.466 10.06 22.466 22.466s-10.06 22.466-22.466 22.466H22.466z"/></svg>